<svg id="visual" viewBox="0 0 960 540" width="960" height="540" xmlns="http://www.w3.org/2000/svg"
    xmlns:xlink="http://www.w3.org/1999/xlink" version="1.1">
    <rect x="0" y="0" width="960" height="540" fill="#ffffff"></rect>
    <defs>
        <linearGradient id="grad1_0" x1="43.8%" y1="0%" x2="100%" y2="100%">
            <stop offset="14.444444444444446%" stop-color="#0cb9c1" stop-opacity="1"></stop>
            <stop offset="85.55555555555554%" stop-color="#0cb9c1" stop-opacity="1"></stop>
        </linearGradient>
    </defs>
    <defs>
        <linearGradient id="grad1_1" x1="43.8%" y1="0%" x2="100%" y2="100%">
            <stop offset="14.444444444444446%" stop-color="#0cb9c1" stop-opacity="1"></stop>
            <stop offset="85.55555555555554%" stop-color="#ffffff" stop-opacity="1"></stop>
        </linearGradient>
    </defs>
    <defs>
        <linearGradient id="grad2_0" x1="0%" y1="0%" x2="56.3%" y2="100%">
            <stop offset="14.444444444444446%" stop-color="#0cb9c1" stop-opacity="1"></stop>
            <stop offset="85.55555555555554%" stop-color="#0cb9c1" stop-opacity="1"></stop>
        </linearGradient>
    </defs>
    <defs>
        <linearGradient id="grad2_1" x1="0%" y1="0%" x2="56.3%" y2="100%">
            <stop offset="14.444444444444446%" stop-color="#ffffff" stop-opacity="1"></stop>
            <stop offset="85.55555555555554%" stop-color="#0cb9c1" stop-opacity="1"></stop>
        </linearGradient>
    </defs>
    <g transform="translate(960, 0)">
        <path
            d="M0 513C-37.3 506.9 -74.7 500.8 -112.4 492.3C-150.1 483.8 -188.2 472.9 -216.5 449.6C-244.8 426.3 -263.3 390.6 -294.9 369.8C-326.5 349 -371.1 343 -401.1 319.9C-431 296.7 -446.2 256.3 -451.4 217.4C-456.5 178.5 -451.6 141 -460.2 105C-468.8 69 -490.9 34.5 -513 0L0 0Z"
            fill="#a3dce0"></path>
        <path
            d="M0 256.5C-18.7 253.5 -37.3 250.4 -56.2 246.2C-75 241.9 -94.1 236.4 -108.3 224.8C-122.4 213.1 -131.7 195.3 -147.5 184.9C-163.2 174.5 -185.6 171.5 -200.5 159.9C-215.5 148.3 -223.1 128.1 -225.7 108.7C-228.3 89.2 -225.8 70.5 -230.1 52.5C-234.4 34.5 -245.4 17.3 -256.5 0L0 0Z"
            fill="#0cb9c1"></path>
    </g>
        <g transform="translate(-17.365487877945043 547.3427514297789)">
        <path
            d="M75.8 -138.4C106.2 -113.7 144.5 -109.6 174.7 -90C204.8 -70.3 226.9 -35.2 218.7 -4.8C210.5 25.7 171.9 51.3 138.9 65.9C105.8 80.6 78.2 84.1 56 93.5C33.8 102.8 16.9 117.9 -14.1 142.3C-45 166.6 -90 200.2 -117.1 193.7C-144.3 187.2 -153.5 140.6 -157.7 101.6C-161.9 62.7 -160.9 31.3 -169.2 -4.7C-177.4 -40.8 -194.8 -81.7 -179.8 -101.9C-164.8 -122.1 -117.4 -121.7 -82 -143.6C-46.7 -165.5 -23.3 -209.7 -0.3 -209.2C22.7 -208.6 45.3 -163.2 75.8 -138.4"
            fill="#0CB9C1"></path>
    </g>
</svg>