<svg id="visual" viewBox="0 0 960 540" width="960" height="540" xmlns="http://www.w3.org/2000/svg" xmlns:xlink="http://www.w3.org/1999/xlink" version="1.1"><rect x="0" y="0" width="960" height="540" fill="#ffffff"></rect><g transform="translate(-17.365487877945043 547.3427514297789)"><path d="M75.8 -138.4C106.2 -113.7 144.5 -109.6 174.7 -90C204.8 -70.3 226.9 -35.2 218.7 -4.8C210.5 25.7 171.9 51.3 138.9 65.9C105.8 80.6 78.2 84.1 56 93.5C33.8 102.8 16.9 117.9 -14.1 142.3C-45 166.6 -90 200.2 -117.1 193.7C-144.3 187.2 -153.5 140.6 -157.7 101.6C-161.9 62.7 -160.9 31.3 -169.2 -4.7C-177.4 -40.8 -194.8 -81.7 -179.8 -101.9C-164.8 -122.1 -117.4 -121.7 -82 -143.6C-46.7 -165.5 -23.3 -209.7 -0.3 -209.2C22.7 -208.6 45.3 -163.2 75.8 -138.4" fill="#0CB9C1"></path></g></svg>