<svg id="visual" viewBox="0 0 960 540" width="960" height="540" xmlns="http://www.w3.org/2000/svg"
    xmlns:xlink="http://www.w3.org/1999/xlink" version="1.1">
    <rect x="0" y="0" width="960" height="540" fill="rgba(255,255,255,0)"></rect>
    <path
        d="M518 540L524.3 531C530.7 522 543.3 504 536.7 486C530 468 504 450 506.7 432C509.3 414 540.7 396 548.8 378C557 360 542 342 532.7 324C523.3 306 519.7 288 512 270C504.3 252 492.7 234 491.5 216C490.3 198 499.7 180 511 162C522.3 144 535.7 126 532.3 108C529 90 509 72 507.2 54C505.3 36 521.7 18 529.8 9L538 0L960 0L960 9C960 18 960 36 960 54C960 72 960 90 960 108C960 126 960 144 960 162C960 180 960 198 960 216C960 234 960 252 960 270C960 288 960 306 960 324C960 342 960 360 960 378C960 396 960 414 960 432C960 450 960 468 960 486C960 504 960 522 960 531L960 540Z"
        fill="#f77864"></path>
    <path
        d="M638 540L639.7 531C641.3 522 644.7 504 633 486C621.3 468 594.7 450 589.5 432C584.3 414 600.7 396 612.7 378C624.7 360 632.3 342 637.8 324C643.3 306 646.7 288 642.8 270C639 252 628 234 621.2 216C614.3 198 611.7 180 611 162C610.3 144 611.7 126 609.7 108C607.7 90 602.3 72 592.8 54C583.3 36 569.7 18 562.8 9L556 0L960 0L960 9C960 18 960 36 960 54C960 72 960 90 960 108C960 126 960 144 960 162C960 180 960 198 960 216C960 234 960 252 960 270C960 288 960 306 960 324C960 342 960 360 960 378C960 396 960 414 960 432C960 450 960 468 960 486C960 504 960 522 960 531L960 540Z"
        fill="#f8725d"></path>
    <path
        d="M627 540L629.5 531C632 522 637 504 646.8 486C656.7 468 671.3 450 675.7 432C680 414 674 396 666.7 378C659.3 360 650.7 342 648.5 324C646.3 306 650.7 288 655.7 270C660.7 252 666.3 234 663 216C659.7 198 647.3 180 643.7 162C640 144 645 126 647.8 108C650.7 90 651.3 72 662.2 54C673 36 694 18 704.5 9L715 0L960 0L960 9C960 18 960 36 960 54C960 72 960 90 960 108C960 126 960 144 960 162C960 180 960 198 960 216C960 234 960 252 960 270C960 288 960 306 960 324C960 342 960 360 960 378C960 396 960 414 960 432C960 450 960 468 960 486C960 504 960 522 960 531L960 540Z"
        fill="#f86c56"></path>
    <path
        d="M769 540L763.5 531C758 522 747 504 742.8 486C738.7 468 741.3 450 745.3 432C749.3 414 754.7 396 758.5 378C762.3 360 764.7 342 757.3 324C750 306 733 288 724.3 270C715.7 252 715.3 234 713.7 216C712 198 709 180 706.3 162C703.7 144 701.3 126 701.5 108C701.7 90 704.3 72 711.8 54C719.3 36 731.7 18 737.8 9L744 0L960 0L960 9C960 18 960 36 960 54C960 72 960 90 960 108C960 126 960 144 960 162C960 180 960 198 960 216C960 234 960 252 960 270C960 288 960 306 960 324C960 342 960 360 960 378C960 396 960 414 960 432C960 450 960 468 960 486C960 504 960 522 960 531L960 540Z"
        fill="#f8664e"></path>
    <path
        d="M801 540L807.2 531C813.3 522 825.7 504 830.2 486C834.7 468 831.3 450 832.3 432C833.3 414 838.7 396 841.5 378C844.3 360 844.7 342 844 324C843.3 306 841.7 288 834 270C826.3 252 812.7 234 802.3 216C792 198 785 180 787 162C789 144 800 126 801.7 108C803.3 90 795.7 72 798.5 54C801.3 36 814.7 18 821.3 9L828 0L960 0L960 9C960 18 960 36 960 54C960 72 960 90 960 108C960 126 960 144 960 162C960 180 960 198 960 216C960 234 960 252 960 270C960 288 960 306 960 324C960 342 960 360 960 378C960 396 960 414 960 432C960 450 960 468 960 486C960 504 960 522 960 531L960 540Z"
        fill="#f86047"></path>
    <path
        d="M860 540L863 531C866 522 872 504 879.2 486C886.3 468 894.7 450 897.8 432C901 414 899 396 898.8 378C898.7 360 900.3 342 895.5 324C890.7 306 879.3 288 877.7 270C876 252 884 234 889.8 216C895.7 198 899.3 180 901 162C902.7 144 902.3 126 895.8 108C889.3 90 876.7 72 877.8 54C879 36 894 18 901.5 9L909 0L960 0L960 9C960 18 960 36 960 54C960 72 960 90 960 108C960 126 960 144 960 162C960 180 960 198 960 216C960 234 960 252 960 270C960 288 960 306 960 324C960 342 960 360 960 378C960 396 960 414 960 432C960 450 960 468 960 486C960 504 960 522 960 531L960 540Z"
        fill="#f85a40"></path>
</svg>